<?xml version="1.0" encoding="UTF-8"?>
<svg width="700pt" height="700pt" version="1.1" viewBox="0 0 700 700" xmlns="http://www.w3.org/2000/svg">
 <path d="m335.8 35c-10.324 0.03125-19.84 5.5195-25 14.477-2.8203 4.9219-9.5078 5.9062-13.621 1.9961-5.3789-5.1602-12.582-8.0664-20.031-8.082-10.07 0.03125-19.363 5.2812-24.609 13.895-2.0352 3.3477-6.0508 4.9336-9.8242 3.8789-2.4297-0.66016-4.8867-1.0312-7.418-1.043-16.062 0-28.898 12.859-28.934 28.934 0.015625 3.918 0.82422 7.7891 2.375 11.383 2.0391 4.6523-0.30078 10.059-5.0898 11.758-11.531 4.125-19.18 14.93-19.195 27.191 0 16.082 12.828 28.965 28.883 29h0.070313c0.18359 0 0.39062-0.058594 0.57812-0.070313 0.34375 0.003906 0.6875 0.027344 1.0273 0.070313h0.1875s3.7422 0.16797 10.031 0.80469c0.082032 0.007813 0.054688 0.007813 0.13672 0.015625 6.4414 0.65234 15.699 1.8828 26.711 3.8945l17.383-25.582c2.7031-4.0898 9.1484-5.8008 13.688-2.582l13.398 9.1289c-0.13672-0.60156-0.21094-1.2148-0.22266-1.8281l-0.51172-65.25c-0.039063-5.0195 3.9648-9.7109 9.5-9.8125l49.152-1.0234v-0.015625h0.066406c0.066406-0.003907 0.125 0.015625 0.19141 0.015625 0.52734 0.003906 1.0508 0.054687 1.5703 0.15234 0.19531 0.035156 0.39063 0.074218 0.58203 0.12109 0.35938 0.089844 0.71484 0.20703 1.0586 0.33984 0.26562 0.10156 0.5 0.23828 0.75391 0.35938 0.73828 0.375 1.4258 0.85156 2.0312 1.418 2.1797 1.875 3.6016 4.5352 3.625 7.2812l0.375 48.707 58.207-16.148c5.3867-1.4961 10.578 2.0469 11.895 6.7852l13.844 49.492c1.0352-0.21094 1.9805-0.38672 2.9922-0.58203 2.9531-0.57031 6.1172-1.2227 8.7148-1.6602 14.863-2.4961 23.031-3.1055 26.336-3.3125 0.95312-0.51562 1.9961-0.84375 3.0742-0.97656 14.688-1.6445 25.727-13.887 25.773-28.676-0.011719-7.043-2.5781-13.844-7.2305-19.125-1.9023-2.1484-2.6289-5.0898-1.9492-7.8789 0.52344-2.1719 0.77734-4.3555 0.78906-6.5938 0-16.105-12.852-28.934-28.934-28.934-4.4336 0.007813-8.7617 1.0039-12.734 2.9727-4.3008 2.1328-9.5156 0.40234-11.688-3.8789-4.9375-9.7539-14.918-15.891-25.84-15.895-2.5312 0-5.0508 0.38672-7.4844 1.043-3.7695 1.0078-7.75-0.60156-9.7617-3.9492-5.2578-8.6133-14.59-13.812-24.676-13.824-5.582 0.015625-11.074 1.6641-15.758 4.7188-3.8242 2.4766-8.9062 1.6055-11.688-2-5.4766-7.0156-13.84-11.086-22.73-11.109zm11.109 58.84-33.531 0.71875 0.39453 52.961 1.6914 1.1641c0.75391-0.48828 1.5664-0.91406 2.4961-1.1797 0.03125-0.015625 0.035157-0.042968 0.066407-0.054687l16.902-4.6641 12.305-3.418zm73.109 43.477-60.684 16.852c-0.30078 0.125-0.60938 0.23438-0.92188 0.32422l-21.758 5.9805-6.4062 1.7773 11.566 41.188c3.9883 2.168 7.9531 4.4531 11.863 6.9023 26.062-15.91 53.918-25.621 77.895-31.699zm-140.41 26.352-9.0547 13.367c10.156 2.4141 20.973 5.3477 32.281 9.2969 3.3516 1.168 6.793 2.6562 10.188 3.9805l-1.3164-4.75zm202.43 23.961c-11.855 0.96094-61.426 8.1172-110.77 35.121 6.7578 5.3242 13.242 11.152 19.277 17.551 2.6719 2.6484 5.2852 5.3828 7.7227 8.3555 5.1992 6.3516 9.9648 13.219 14.203 20.613 4.2383 7.3945 7.9492 15.293 10.988 23.77 3.0391 8.4805 5.4219 17.527 7.0391 27.121 1.6172 9.5938 2.4453 19.746 2.4453 30.488v173.94l49.098 0.27344zm-258.5 0.46094v336.52h191.9v-173.94c0-4.9023-0.19531-9.6523-0.5625-14.254-0.37109-4.5898-0.91797-9.0352-1.6406-13.332-1.4531-8.5977-3.5703-16.594-6.2578-24.094-2.6875-7.5078-5.9531-14.539-9.6875-21.055-3.7383-6.5195-7.9102-12.582-12.527-18.219-31.332-37.027-81.5-56.918-130.55-68.086-0.074219-0.015625-0.14844-0.035156-0.22266-0.050781-15.523-2.7109-26.609-3.2422-30.453-3.4883zm231.31 21.773c2.3594-0.042969 4.6406 0.875 6.3164 2.5391 1.6758 1.6641 2.6094 3.9336 2.5859 6.2969v43.801c-0.10547 4.7578-3.9922 8.5586-8.75 8.5586s-8.6445-3.8008-8.75-8.5586v-43.801c-0.046875-4.8047 3.7891-8.75 8.5977-8.8359zm-192.5 26.266c2.3672-0.042968 4.6523 0.87109 6.332 2.5391 1.6836 1.668 2.6172 3.9453 2.5859 6.3164v43.801c-0.10547 4.7578-3.9922 8.5586-8.75 8.5586s-8.6445-3.8008-8.75-8.5586v-43.801c-0.054687-4.8086 3.7734-8.7617 8.582-8.8555zm96.23 26.371c2.3672-0.046875 4.6562 0.87109 6.3359 2.5391 1.6797 1.668 2.6133 3.9453 2.5859 6.3125v43.785c0.050781 2.3555-0.84766 4.6289-2.4922 6.3125-1.6484 1.6836-3.9023 2.6328-6.2578 2.6328s-4.6094-0.94922-6.2578-2.6328c-1.6445-1.6836-2.543-3.957-2.4922-6.3125v-43.785c-0.058594-4.8047 3.7734-8.7578 8.5781-8.8516zm-43.75 43.613c2.3672-0.046875 4.6484 0.86719 6.3281 2.5312 1.6836 1.6641 2.6172 3.9375 2.5938 6.3047v43.801c-0.10547 4.7578-3.9922 8.5586-8.75 8.5586s-8.6445-3.8008-8.75-8.5586v-43.801c-0.046875-4.8008 3.7812-8.7422 8.5781-8.8359zm140.02 8.75c2.3594-0.042969 4.6406 0.875 6.3164 2.5391 1.6758 1.6641 2.6094 3.9336 2.5859 6.2969v43.801c-0.10547 4.7578-3.9922 8.5586-8.75 8.5586s-8.6445-3.8008-8.75-8.5586v-43.801c-0.046875-4.8047 3.7891-8.75 8.5977-8.8359zm-201.25 43.887c2.3633-0.042969 4.6445 0.875 6.3203 2.543 1.6797 1.668 2.6094 3.9453 2.582 6.3086v43.785c-0.10547 4.7578-3.9922 8.5586-8.75 8.5586s-8.6445-3.8008-8.75-8.5586v-43.785c-0.058594-4.8125 3.7852-8.7656 8.5977-8.8516zm96.23 52.363c2.3672-0.046875 4.6484 0.86719 6.3281 2.5312 1.6836 1.6641 2.6172 3.9375 2.5938 6.3047v43.801c-0.10547 4.7578-3.9922 8.5586-8.75 8.5586s-8.6445-3.8008-8.75-8.5586v-43.801c-0.046875-4.8008 3.7812-8.7422 8.5781-8.8359zm105.02 0c2.3594-0.042969 4.6406 0.875 6.3164 2.5391 1.6758 1.6641 2.6094 3.9336 2.5859 6.2969v43.801c-0.10547 4.7578-3.9922 8.5586-8.75 8.5586s-8.6445-3.8008-8.75-8.5586v-43.801c-0.046875-4.8047 3.7891-8.75 8.5977-8.8359zm-157.52 43.75c2.3672-0.046875 4.6484 0.86719 6.3281 2.5312 1.6836 1.6641 2.6172 3.9375 2.5938 6.3047v43.801c-0.10547 4.7578-3.9922 8.5586-8.75 8.5586s-8.6445-3.8008-8.75-8.5586v-43.801c-0.046875-4.8008 3.7812-8.7422 8.5781-8.8359z"/>
</svg>
